<svg width="26" height="28" viewBox="0 0 26 28" fill="none" xmlns="http://www.w3.org/2000/svg">
<path opacity="0.2" fill-rule="evenodd" clip-rule="evenodd" d="M7.14996 13.3001C7.14958 14.6478 7.47768 15.972 8.10146 17.1404C8.72524 18.3088 9.62285 19.2804 10.7046 19.9581C11.7863 20.6358 13.0143 20.9959 14.2657 21.0023C15.5172 21.0088 16.7483 20.6614 17.836 19.9949C17.914 20.1335 18.0089 20.2651 18.122 20.3855L22.022 24.5855C22.3899 24.9678 22.8826 25.1793 23.3939 25.1742C23.9051 25.1692 24.3941 24.9481 24.7555 24.5585C25.1169 24.169 25.3217 23.6422 25.3259 23.0916C25.3301 22.5409 25.1333 22.0106 24.778 21.6147L20.878 17.4147C20.7692 17.297 20.6479 17.1937 20.5166 17.1067C21.0573 16.0818 21.3723 14.937 21.4373 13.7603C21.5024 12.5837 21.3157 11.4067 20.8917 10.32C20.4677 9.23328 19.8177 8.26592 18.9918 7.49244C18.1658 6.71896 17.1861 6.16002 16.1279 5.85867C15.0697 5.55732 13.9615 5.52162 12.8885 5.75432C11.8155 5.98701 10.8064 6.48189 9.93903 7.20082C9.07166 7.91975 8.36912 8.84354 7.88557 9.901C7.40201 10.9585 7.15035 12.1214 7.14996 13.3001Z" fill="black"/>
<path fill-rule="evenodd" clip-rule="evenodd" d="M6.27637 6.7593C5.67271 7.4094 5.19386 8.18117 4.86716 9.03057C4.54046 9.87996 4.37231 10.7903 4.37231 11.7097C4.37231 12.6291 4.54046 13.5394 4.86716 14.3888C5.19386 15.2382 5.67271 16.01 6.27637 16.6601C6.88003 17.3102 7.59668 17.8259 8.3854 18.1777C9.17412 18.5295 10.0195 18.7106 10.8732 18.7106C11.7269 18.7106 12.5722 18.5295 13.3609 18.1777C14.1497 17.8259 14.8663 17.3102 15.47 16.6601C16.654 15.3399 17.3092 13.5717 17.2944 11.7363C17.2795 9.90092 16.5959 8.14523 15.3908 6.84737C14.1856 5.54952 12.5554 4.81333 10.8511 4.79738C9.1468 4.78143 7.50489 5.487 6.27897 6.7621M14.5522 15.6717C14.0713 16.2012 13.4976 16.6227 12.8644 16.9119C12.2312 17.201 11.551 17.3519 10.8633 17.356C10.1755 17.3601 9.49382 17.2172 8.85769 16.9356C8.22156 16.654 7.64362 16.2393 7.15734 15.7156C6.67106 15.1918 6.28609 14.5693 6.02472 13.8842C5.76336 13.1991 5.63079 12.4649 5.6347 11.7243C5.63861 10.9836 5.77892 10.2511 6.0475 9.56928C6.31608 8.88741 6.70759 8.2697 7.19937 7.7519C8.17829 6.7212 9.49515 6.14782 10.8642 6.1562C12.2332 6.16458 13.5439 6.75404 14.5119 7.79666C15.4799 8.83928 16.027 10.2509 16.0345 11.7253C16.0421 13.1996 15.5094 14.6177 14.5522 15.6717Z" fill="black"/>
<path d="M14.5496 17.6779C14.3058 17.4152 14.1689 17.059 14.1691 16.6876C14.1692 16.3163 14.3063 15.9601 14.5502 15.6976C14.7942 15.4351 15.1249 15.2877 15.4698 15.2878C15.8146 15.288 16.1453 15.4356 16.3891 15.6983L20.0655 19.6589C20.1896 19.7881 20.2887 19.9426 20.3568 20.1134C20.4249 20.2842 20.4608 20.4679 20.4623 20.6538C20.4638 20.8397 20.4309 21.024 20.3655 21.1961C20.3002 21.3681 20.2037 21.5244 20.0816 21.6559C19.9595 21.7873 19.8144 21.8913 19.6546 21.9617C19.4949 22.0321 19.3237 22.0675 19.1511 22.0659C18.9784 22.0643 18.8079 22.0256 18.6493 21.9523C18.4906 21.8789 18.3472 21.7722 18.2273 21.6385L14.5496 17.6779Z" fill="black"/>
</svg>
